<mxfile host="app.diagrams.net" modified="2023-01-11T10:34:01.170Z" agent="5.0 (Macintosh; Intel Mac OS X 10_15_7) AppleWebKit/537.36 (KHTML, like Gecko) Chrome/109.0.0.0 Safari/537.36" etag="MPTtw_Q6NZjBjMxNRq-G" version="20.5.3" type="github">
  <diagram id="XQ500ZkQaks5Zy5LMzZ0" name="Page-1">
    <mxGraphModel dx="924" dy="510" grid="1" gridSize="10" guides="1" tooltips="1" connect="1" arrows="1" fold="1" page="1" pageScale="1" pageWidth="827" pageHeight="1169" math="0" shadow="0">
      <root>
        <mxCell id="0" />
        <mxCell id="1" parent="0" />
        <mxCell id="V0u6nagROQ-RZq8l1PuZ-1" value="&lt;font style=&quot;font-size: 19px;&quot;&gt;Процесс Непрерывной интеграции&lt;/font&gt;" style="text;html=1;resizable=0;autosize=1;align=center;verticalAlign=middle;points=[];fillColor=none;strokeColor=none;rounded=0;" vertex="1" parent="1">
          <mxGeometry x="244" y="35" width="340" height="40" as="geometry" />
        </mxCell>
        <mxCell id="V0u6nagROQ-RZq8l1PuZ-11" style="edgeStyle=orthogonalEdgeStyle;rounded=0;orthogonalLoop=1;jettySize=auto;html=1;exitX=1;exitY=0.5;exitDx=0;exitDy=0;entryX=0;entryY=0.5;entryDx=0;entryDy=0;" edge="1" parent="1" source="V0u6nagROQ-RZq8l1PuZ-3" target="V0u6nagROQ-RZq8l1PuZ-6">
          <mxGeometry relative="1" as="geometry" />
        </mxCell>
        <mxCell id="V0u6nagROQ-RZq8l1PuZ-3" value="" style="whiteSpace=wrap;html=1;aspect=fixed;" vertex="1" parent="1">
          <mxGeometry x="70" y="130" width="100" height="100" as="geometry" />
        </mxCell>
        <mxCell id="V0u6nagROQ-RZq8l1PuZ-4" value="Разработчик&lt;br&gt;&lt;br&gt;добавляет &lt;br&gt;изменения в код" style="text;html=1;resizable=0;autosize=1;align=center;verticalAlign=middle;points=[];fillColor=none;strokeColor=none;rounded=0;" vertex="1" parent="1">
          <mxGeometry x="60" y="140" width="120" height="70" as="geometry" />
        </mxCell>
        <mxCell id="V0u6nagROQ-RZq8l1PuZ-12" style="edgeStyle=orthogonalEdgeStyle;rounded=0;orthogonalLoop=1;jettySize=auto;html=1;exitX=1;exitY=0.5;exitDx=0;exitDy=0;entryX=0;entryY=0.5;entryDx=0;entryDy=0;" edge="1" parent="1" source="V0u6nagROQ-RZq8l1PuZ-6" target="V0u6nagROQ-RZq8l1PuZ-7">
          <mxGeometry relative="1" as="geometry" />
        </mxCell>
        <mxCell id="V0u6nagROQ-RZq8l1PuZ-6" value="" style="whiteSpace=wrap;html=1;aspect=fixed;" vertex="1" parent="1">
          <mxGeometry x="230" y="130" width="100" height="100" as="geometry" />
        </mxCell>
        <mxCell id="V0u6nagROQ-RZq8l1PuZ-18" style="edgeStyle=orthogonalEdgeStyle;rounded=0;orthogonalLoop=1;jettySize=auto;html=1;exitX=0.5;exitY=1;exitDx=0;exitDy=0;" edge="1" parent="1" source="V0u6nagROQ-RZq8l1PuZ-7">
          <mxGeometry relative="1" as="geometry">
            <mxPoint x="450" y="210.0000000000001" as="targetPoint" />
          </mxGeometry>
        </mxCell>
        <mxCell id="V0u6nagROQ-RZq8l1PuZ-19" style="edgeStyle=orthogonalEdgeStyle;rounded=0;orthogonalLoop=1;jettySize=auto;html=1;exitX=0.5;exitY=1;exitDx=0;exitDy=0;entryX=0.5;entryY=1;entryDx=0;entryDy=0;" edge="1" parent="1" source="V0u6nagROQ-RZq8l1PuZ-7" target="V0u6nagROQ-RZq8l1PuZ-3">
          <mxGeometry relative="1" as="geometry">
            <Array as="points">
              <mxPoint x="450" y="340" />
              <mxPoint x="120" y="340" />
            </Array>
          </mxGeometry>
        </mxCell>
        <mxCell id="V0u6nagROQ-RZq8l1PuZ-22" style="edgeStyle=orthogonalEdgeStyle;rounded=0;orthogonalLoop=1;jettySize=auto;html=1;exitX=1;exitY=0.5;exitDx=0;exitDy=0;entryX=0;entryY=0.5;entryDx=0;entryDy=0;" edge="1" parent="1" source="V0u6nagROQ-RZq8l1PuZ-7" target="V0u6nagROQ-RZq8l1PuZ-21">
          <mxGeometry relative="1" as="geometry" />
        </mxCell>
        <mxCell id="V0u6nagROQ-RZq8l1PuZ-7" value="" style="whiteSpace=wrap;html=1;aspect=fixed;" vertex="1" parent="1">
          <mxGeometry x="400" y="130" width="100" height="100" as="geometry" />
        </mxCell>
        <mxCell id="V0u6nagROQ-RZq8l1PuZ-8" value="Система&lt;br&gt;контроля&lt;br&gt;версий" style="text;html=1;resizable=0;autosize=1;align=center;verticalAlign=middle;points=[];fillColor=none;strokeColor=none;rounded=0;" vertex="1" parent="1">
          <mxGeometry x="240" y="145" width="80" height="60" as="geometry" />
        </mxCell>
        <mxCell id="V0u6nagROQ-RZq8l1PuZ-13" value="Сервер &lt;br&gt;интеграции&lt;br&gt;&lt;br&gt;Сборка кода&lt;br&gt;Выполнение &lt;br&gt;тестов" style="text;html=1;resizable=0;autosize=1;align=center;verticalAlign=middle;points=[];fillColor=none;strokeColor=none;rounded=0;" vertex="1" parent="1">
          <mxGeometry x="400" y="130" width="100" height="100" as="geometry" />
        </mxCell>
        <mxCell id="V0u6nagROQ-RZq8l1PuZ-20" value="Обнаружены ошибки" style="text;html=1;resizable=0;autosize=1;align=center;verticalAlign=middle;points=[];fillColor=none;strokeColor=none;rounded=0;" vertex="1" parent="1">
          <mxGeometry x="205" y="310" width="140" height="30" as="geometry" />
        </mxCell>
        <mxCell id="V0u6nagROQ-RZq8l1PuZ-26" style="edgeStyle=orthogonalEdgeStyle;rounded=0;orthogonalLoop=1;jettySize=auto;html=1;exitX=0.5;exitY=1;exitDx=0;exitDy=0;entryX=0.5;entryY=0;entryDx=0;entryDy=0;fontSize=12;" edge="1" parent="1" source="V0u6nagROQ-RZq8l1PuZ-21" target="V0u6nagROQ-RZq8l1PuZ-25">
          <mxGeometry relative="1" as="geometry" />
        </mxCell>
        <mxCell id="V0u6nagROQ-RZq8l1PuZ-21" value="" style="whiteSpace=wrap;html=1;aspect=fixed;" vertex="1" parent="1">
          <mxGeometry x="640" y="130" width="100" height="100" as="geometry" />
        </mxCell>
        <mxCell id="V0u6nagROQ-RZq8l1PuZ-23" value="Интеграция прошла &lt;br&gt;успешно" style="text;html=1;resizable=0;autosize=1;align=center;verticalAlign=middle;points=[];fillColor=none;strokeColor=none;rounded=0;" vertex="1" parent="1">
          <mxGeometry x="500" y="160" width="140" height="40" as="geometry" />
        </mxCell>
        <mxCell id="V0u6nagROQ-RZq8l1PuZ-24" value="Изменения &lt;br&gt;добавляются &lt;br style=&quot;font-size: 12px;&quot;&gt;в главную ветку" style="text;html=1;resizable=0;autosize=1;align=center;verticalAlign=middle;points=[];fillColor=none;strokeColor=none;rounded=0;fontSize=12;" vertex="1" parent="1">
          <mxGeometry x="630" y="145" width="120" height="60" as="geometry" />
        </mxCell>
        <mxCell id="V0u6nagROQ-RZq8l1PuZ-25" value="" style="whiteSpace=wrap;html=1;aspect=fixed;" vertex="1" parent="1">
          <mxGeometry x="640" y="310" width="100" height="100" as="geometry" />
        </mxCell>
        <mxCell id="V0u6nagROQ-RZq8l1PuZ-27" value="Переход &lt;br&gt;к процессу CD&lt;br&gt;(Непрерывная &lt;br&gt;доставка)" style="text;html=1;resizable=0;autosize=1;align=center;verticalAlign=middle;points=[];fillColor=none;strokeColor=none;rounded=0;fontSize=12;" vertex="1" parent="1">
          <mxGeometry x="635" y="325" width="110" height="70" as="geometry" />
        </mxCell>
      </root>
    </mxGraphModel>
  </diagram>
</mxfile>
